<svg xmlns="http://www.w3.org/2000/svg" width="450" height="125" viewBox="0 0 119.062 33.073">
  <g transform="translate(0 -263.927)" stroke="#000" stroke-width=".265" stroke-linecap="round" stroke-dasharray=".13229167,.13229167">
    <rect width="5.292" height="5.292" x="41.774" y="289.063" ry="0" fill="#caf"/>
    <rect ry="0" y="282.448" x="41.774" height="5.292" width="5.292" fill="#acf"/>
    <rect width="5.292" height="5.292" x="57.649" y="282.448" ry="0" fill="none"/>
    <rect width="5.292" height="5.292" x="41.774" y="275.833" ry="0" fill="#e5ff80"/>
    <rect width="5.292" height="5.292" x="52.357" y="275.833" ry="0" fill="none"/>
    <rect ry="0" y="275.833" x="57.649" height="5.292" width="5.292" fill="none"/>
    <rect ry="0" y="269.219" x="41.774" height="5.292" width="5.292" fill="#faa"/>
    <rect ry="0" y="269.219" x="52.357" height="5.292" width="5.292" fill="none"/>
    <rect width="5.292" height="5.292" x="57.649" y="269.219" ry="0" fill="none"/>
    <rect width="5.292" height="5.292" x="41.774" y="269.219" ry="0" fill="#faa"/>
    <rect width="5.292" height="5.292" x="47.066" y="269.219" ry="0" fill="#faa"/>
    <rect width="5.292" height="5.292" x="47.066" y="275.833" ry="0" fill="#e5ff80"/>
    <rect width="5.292" height="5.292" x="47.066" y="282.448" ry="0" fill="#acf"/>
    <rect width="5.292" height="5.292" x="52.357" y="282.448" ry="0" fill="none"/>
    <rect ry="0" y="289.063" x="47.066" height="5.292" width="5.292" fill="#caf"/>
    <rect ry="0" y="289.063" x="52.357" height="5.292" width="5.292" fill="#caf"/>
    <rect width="5.292" height="5.292" x="57.649" y="289.063" ry="0" fill="#caf"/>
  </g>
  <text style="line-height:1.25;-inkscape-font-specification:'Trebuchet MS'" x="68.258" y="292.594" font-weight="400" font-size="4.939" font-family="Trebuchet MS" letter-spacing="0" word-spacing="0" stroke-width=".265" transform="translate(0 -263.927)">
    <tspan x="68.258" y="292.594" style="-inkscape-font-specification:'Courier New'" font-family="Courier New">????????????????</tspan>
  </text>
  <text style="line-height:1.25;-inkscape-font-specification:'Trebuchet MS'" x="68.525" y="285.911" font-weight="400" font-size="4.939" font-family="Trebuchet MS" letter-spacing="0" word-spacing="0" stroke-width=".265" transform="translate(0 -263.927)">
    <tspan x="68.525" y="285.911" style="-inkscape-font-specification:'Courier New'" font-family="Courier New">xxxxxxxxxxxxxxxx</tspan>
  </text>
  <text style="line-height:1.25;-inkscape-font-specification:'Trebuchet MS'" x="68.558" y="279.711" font-weight="400" font-size="4.939" font-family="Trebuchet MS" letter-spacing="0" word-spacing="0" stroke-width=".265" transform="translate(0 -263.927)">
    <tspan x="68.558" y="279.711" style="-inkscape-font-specification:'Courier New'" font-family="Courier New">00000xxxxxxxxxxx</tspan>
  </text>
  <text style="line-height:1.25;-inkscape-font-specification:'Trebuchet MS'" x="68.55" y="273.144" font-weight="400" font-size="4.939" font-family="Trebuchet MS" letter-spacing="0" word-spacing="0" stroke-width=".265" transform="translate(0 -263.927)">
    <tspan x="68.55" y="273.144" style="-inkscape-font-specification:'Courier New'" font-family="Courier New">000000000xxxxxxx</tspan>
  </text>
  <text style="line-height:1.25;-inkscape-font-specification:'Trebuchet MS'" x="48.7" y="279.987" font-weight="400" font-size="4.233" font-family="Trebuchet MS" letter-spacing="0" word-spacing="0" stroke-width=".265" transform="translate(0 -263.927)">
    <tspan x="48.7" y="279.987" style="-inkscape-font-specification:'Trebuchet MS'">3</tspan>
  </text>
  <text style="line-height:1.25;-inkscape-font-specification:'Trebuchet MS'" x="43.409" y="292.762" font-weight="400" font-size="4.233" font-family="Trebuchet MS" letter-spacing="0" word-spacing="0" stroke-width=".265" transform="translate(0 -263.927)">
    <tspan x="43.409" y="292.762" style="-inkscape-font-specification:'Trebuchet MS'">s</tspan>
  </text>
  <text style="line-height:1.25;-inkscape-font-specification:'Trebuchet MS'" x="48.593" y="273.294" font-weight="400" font-size="4.233" font-family="Trebuchet MS" letter-spacing="0" word-spacing="0" stroke-width=".265" transform="translate(0 -263.927)">
    <tspan x="48.593" y="273.294" style="-inkscape-font-specification:'Trebuchet MS'">0</tspan>
  </text>
  <text style="line-height:1.25;-inkscape-font-specification:'Trebuchet MS'" x="43.491" y="279.579" font-weight="400" font-size="4.233" font-family="Trebuchet MS" letter-spacing="0" word-spacing="0" stroke-width=".265" transform="translate(0 -263.927)">
    <tspan x="43.491" y="279.579" style="-inkscape-font-specification:'Trebuchet MS'">x</tspan>
  </text>
  <text style="line-height:1.25;-inkscape-font-specification:'Trebuchet MS'" x="2.857" y="272.924" font-weight="400" font-size="3.704" font-family="Trebuchet MS" letter-spacing="0" word-spacing="0" stroke-width=".265" transform="translate(0 -263.927)">
    <tspan x="2.857" y="272.924">[U+0000 .. U+007F]</tspan>
  </text>
  <text y="279.58" x="2.974" style="line-height:1.25;-inkscape-font-specification:'Trebuchet MS'" font-weight="400" font-size="3.704" font-family="Trebuchet MS" letter-spacing="0" word-spacing="0" stroke-width=".265" transform="translate(0 -263.927)">
    <tspan y="279.58" x="2.974">[U+0080 .. U+07FF]</tspan>
  </text>
  <text style="line-height:1.25;-inkscape-font-specification:'Trebuchet MS'" x="2.974" y="286.194" font-weight="400" font-size="3.704" font-family="Trebuchet MS" letter-spacing="0" word-spacing="0" stroke-width=".265" transform="translate(0 -263.927)">
    <tspan x="2.974" y="286.194">[U+0800 .. U+FFFF]</tspan>
  </text>
  <text y="292.856" x="3.004" style="line-height:1.25;-inkscape-font-specification:'Trebuchet MS'" font-weight="400" font-size="3.704" font-family="Trebuchet MS" letter-spacing="0" word-spacing="0" stroke-width=".265" transform="translate(0 -263.927)">
    <tspan y="292.856" x="3.004">[U+10000 .. max ]</tspan>
  </text>
  <text style="line-height:1.25;-inkscape-font-specification:'Trebuchet MS'" x="40.319" y="267.102" font-weight="400" font-size="2.822" font-family="Trebuchet MS" letter-spacing="0" word-spacing="0" stroke-width=".265" transform="translate(0 -263.927)">
    <tspan x="40.319" y="267.102" style="-inkscape-font-specification:'Trebuchet MS'">byte representation:</tspan>
  </text>
  <text style="line-height:1.25;-inkscape-font-specification:'Trebuchet MS'" x="5.379" y="267.168" font-weight="400" font-size="2.822" font-family="Trebuchet MS" letter-spacing="0" word-spacing="0" stroke-width=".265" transform="translate(0 -263.927)">
    <tspan x="5.379" y="267.168" style="-inkscape-font-specification:'Trebuchet MS'">code point (in range):</tspan>
  </text>
  <text style="line-height:1.25;-inkscape-font-specification:'Trebuchet MS'" x="80.893" y="266.876" font-weight="400" font-size="2.822" font-family="Trebuchet MS" letter-spacing="0" word-spacing="0" stroke-width=".265" transform="translate(0 -263.927)">
    <tspan x="80.893" y="266.876" style="-inkscape-font-specification:'Trebuchet MS'">bit representation:</tspan>
  </text>
  <text style="line-height:1.25;-inkscape-font-specification:'Trebuchet MS'" x="65.984" y="296.322" font-weight="400" font-size="2.822" font-family="Trebuchet MS" letter-spacing="0" word-spacing="0" stroke-width=".265" transform="translate(0 -263.927)">
    <tspan x="65.984" y="296.322" style="-inkscape-font-specification:'Trebuchet MS'">(high).....................................(low)</tspan>
  </text>
  <text y="292.762" x="49.021" style="line-height:1.25;-inkscape-font-specification:'Trebuchet MS'" font-weight="400" font-size="4.233" font-family="Trebuchet MS" letter-spacing="0" word-spacing="0" stroke-width=".265" transform="translate(0 -263.927)">
    <tspan style="-inkscape-font-specification:'Trebuchet MS'" y="292.762" x="49.021">s</tspan>
  </text>
  <text style="line-height:1.25;-inkscape-font-specification:'Trebuchet MS'" x="54.073" y="292.762" font-weight="400" font-size="4.233" font-family="Trebuchet MS" letter-spacing="0" word-spacing="0" stroke-width=".265" transform="translate(0 -263.927)">
    <tspan x="54.073" y="292.762" style="-inkscape-font-specification:'Trebuchet MS'">s</tspan>
  </text>
  <text y="292.762" x="59.592" style="line-height:1.25;-inkscape-font-specification:'Trebuchet MS'" font-weight="400" font-size="4.233" font-family="Trebuchet MS" letter-spacing="0" word-spacing="0" stroke-width=".265" transform="translate(0 -263.927)">
    <tspan style="-inkscape-font-specification:'Trebuchet MS'" y="292.762" x="59.592">s</tspan>
  </text>
  <text style="line-height:1.25;-inkscape-font-specification:'Trebuchet MS'" x="48.658" y="286.133" font-weight="400" font-size="4.233" font-family="Trebuchet MS" letter-spacing="0" word-spacing="0" stroke-width=".265" transform="translate(0 -263.927)">
    <tspan x="48.658" y="286.133" style="-inkscape-font-specification:'Trebuchet MS'">x</tspan>
  </text>
  <text style="line-height:1.25;-inkscape-font-specification:'Trebuchet MS'" x="43.467" y="286.133" font-weight="400" font-size="4.233" font-family="Trebuchet MS" letter-spacing="0" word-spacing="0" stroke-width=".265" transform="translate(0 -263.927)">
    <tspan x="43.467" y="286.133" style="-inkscape-font-specification:'Trebuchet MS'">x</tspan>
  </text>
  <text style="line-height:1.25;-inkscape-font-specification:'Trebuchet MS'" x="43.373" y="273.318" font-weight="400" font-size="4.233" font-family="Trebuchet MS" letter-spacing="0" word-spacing="0" stroke-width=".265" transform="translate(0 -263.927)">
    <tspan x="43.373" y="273.318" style="-inkscape-font-specification:'Trebuchet MS'">7</tspan>
  </text>
  <path d="M116.042 8.564v1.45H95.088V8.377m20.954 6.67v1.45H98.175V14.86m0 .187v1.45H83.16V14.86m32.882 6.47v1.45H98.175v-1.637m0 .187v1.45H80.308v-1.637m0 .187v1.45H68.46l-.043-1.59" fill="none" stroke="#000" stroke-width=".529"/>
  <path d="M92.265 5.11l-.018 25.143" fill="none" stroke="#000" stroke-width=".397" stroke-dasharray=".79374998,.79374998"/>
</svg>
