<svg xmlns="http://www.w3.org/2000/svg" width="700" height="115" viewBox="0 0 185.208 30.427">
  <g transform="translate(0 -266.573)">
    <rect width="13.229" height="6.615" x="74.083" y="269.219" ry="0" fill="#e5ff80" stroke="#000" stroke-width=".661" stroke-linecap="round"/>
    <rect ry="0" y="269.219" x="87.313" height="6.615" width="13.229" fill="#faa" stroke="#000" stroke-width=".661" stroke-linecap="round"/>
    <rect ry="0" y="269.219" x="100.542" height="6.615" width="13.229" fill="#e5ff80" stroke="#000" stroke-width=".661" stroke-linecap="round"/>
    <rect width="13.229" height="6.615" x="113.771" y="269.219" ry="0" fill="#faa" stroke="#000" stroke-width=".661" stroke-linecap="round"/>
    <rect ry="0" y="269.219" x="127" height="6.615" width="13.229" fill="#faa" stroke="#000" stroke-width=".661" stroke-linecap="round"/>
    <rect width="13.229" height="6.615" x="140.229" y="269.219" ry="0" fill="#faa" stroke="#000" stroke-width=".661" stroke-linecap="round"/>
    <rect width="13.229" height="6.615" x="153.458" y="269.219" ry="0" fill="#e5ff80" stroke="#000" stroke-width=".661" stroke-linecap="round"/>
    <rect ry="0" y="269.219" x="166.688" height="6.615" width="13.229" fill="#e5ff80" stroke="#000" stroke-width=".661" stroke-linecap="round"/>
    <rect ry="0" y="278.479" x="74.083" height="6.615" width="13.229" fill="#e5ff80" stroke="#000" stroke-width=".661" stroke-linecap="round"/>
    <rect width="13.229" height="6.615" x="87.313" y="278.479" ry="0" fill="#faa" stroke="#000" stroke-width=".661" stroke-linecap="round"/>
    <rect width="13.229" height="6.615" x="100.542" y="278.479" ry="0" fill="#e5ff80" stroke="#000" stroke-width=".661" stroke-linecap="round"/>
    <rect ry="0" y="278.479" x="113.771" height="6.615" width="13.229" fill="#faa" stroke="#000" stroke-width=".661" stroke-linecap="round"/>
    <rect width="13.229" height="6.615" x="127" y="278.479" ry="0" fill="#faa" stroke="#000" stroke-width=".661" stroke-linecap="round"/>
    <rect ry="0" y="278.479" x="140.229" height="6.615" width="13.229" fill="#faa" stroke="#000" stroke-width=".661" stroke-linecap="round"/>
    <rect ry="0" y="278.479" x="153.458" height="6.615" width="13.229" fill="#e5ff80" stroke="#000" stroke-width=".661" stroke-linecap="round"/>
    <rect width="13.229" height="6.615" x="166.688" y="278.479" ry="0" fill="#e5ff80" stroke="#000" stroke-width=".661" stroke-linecap="round"/>
    <rect width="13.229" height="6.615" x="74.083" y="287.74" ry="0" fill="#e5ff80" stroke="#000" stroke-width=".661" stroke-linecap="round"/>
    <rect ry="0" y="287.74" x="87.313" height="6.615" width="13.229" fill="#faa" stroke="#000" stroke-width=".661" stroke-linecap="round"/>
    <rect ry="0" y="287.74" x="100.542" height="6.615" width="13.229" fill="#e5ff80" stroke="#000" stroke-width=".661" stroke-linecap="round"/>
    <rect width="13.229" height="6.615" x="113.771" y="287.74" ry="0" fill="#faa" stroke="#000" stroke-width=".661" stroke-linecap="round"/>
    <rect ry="0" y="287.74" x="127" height="6.615" width="13.229" fill="#faa" stroke="#000" stroke-width=".661" stroke-linecap="round"/>
    <rect width="13.229" height="6.615" x="140.229" y="287.74" ry="0" fill="#faa" stroke="#000" stroke-width=".661" stroke-linecap="round"/>
    <rect width="13.229" height="6.615" x="153.458" y="287.74" ry="0" fill="#e5ff80" stroke="#000" stroke-width=".661" stroke-linecap="round"/>
    <rect ry="0" y="287.74" x="166.688" height="6.615" width="13.229" fill="#e5ff80" stroke="#000" stroke-width=".661" stroke-linecap="round"/>
    <rect ry="0" y="270.051" x="36.935" height="4.436" width="17.773" fill="#faa"/>
    <path d="M6.767 289.139l24.121-14.652" fill="none" stroke="#000" stroke-width=".265"/>
    <rect width="14.733" height="4.436" x="19.162" y="270.051" ry="0" fill="#e5ff80"/>
    <rect ry="0" y="270.051" x="7.153" height="4.436" width="12.009" fill="#acf"/>
    <rect width="12.009" height="4.436" x="24.793" y="279.311" ry="0" fill="#acf"/>
    <rect ry="0" y="289.139" x="12.813" height="4.436" width="17.773" fill="#faa"/>
    <path d="M30.586 289.139l24.121-14.652" fill="none" stroke="#000" stroke-width=".265"/>
    <rect width="3.04" height="4.436" x="33.894" y="270.051" ry="0" fill="#f2d495"/>
    <rect ry="0" y="279.311" x="36.802" height="4.436" width="14.733" fill="#e5ff80"/>
    <rect ry="0" y="279.311" x="51.534" height="4.436" width="3.04" fill="#f2d495"/>
    <rect width="14.733" height="4.436" x="36.802" y="289.1" ry="0" fill="#e5ff80"/>
    <rect width="3.04" height="4.436" x="51.534" y="289.1" ry="0" fill="#f2d495"/>
    <rect ry="0" y="289.139" x="6.767" height="4.436" width="3.006" fill="#e5ff80"/>
    <rect ry="0" y="289.139" x="9.773" height="4.436" width="3.04" fill="#f2d495"/>
    <path d="M19.162 274.487l17.64 4.824m.133-4.824l17.64 4.824" fill="none" stroke="#000" stroke-width=".265"/>
    <rect ry="0" y="279.311" x="7.02" height="4.436" width="17.773" fill="#fff"/>
  </g>
  <g font-weight="400" letter-spacing="0" word-spacing="0">
    <text style="line-height:1.25;-inkscape-font-specification:'Trebuchet MS'" x="76.271" y="273.887" font-size="4.233" font-family="Trebuchet MS" stroke-width=".165" transform="translate(0 -266.573)">
      <tspan x="76.271" y="273.887" style="-inkscape-font-specification:'Trebuchet MS'">03B1</tspan>
    </text>
    <text y="273.887" x="89.484" style="line-height:1.25;-inkscape-font-specification:'Trebuchet MS'" font-size="4.233" font-family="Trebuchet MS" stroke-width=".165" transform="translate(0 -266.573)">
      <tspan style="-inkscape-font-specification:'Trebuchet MS'" y="273.887" x="89.484">002B</tspan>
    </text>
    <text style="line-height:1.25;-inkscape-font-specification:'Trebuchet MS'" x="102.714" y="273.887" font-size="4.233" font-family="Trebuchet MS" stroke-width=".165" transform="translate(0 -266.573)">
      <tspan x="102.714" y="273.887" style="-inkscape-font-specification:'Trebuchet MS'">03B2</tspan>
    </text>
    <text y="273.887" x="116.078" style="line-height:1.25;-inkscape-font-specification:'Trebuchet MS'" font-size="4.233" font-family="Trebuchet MS" stroke-width=".165" transform="translate(0 -266.573)">
      <tspan style="-inkscape-font-specification:'Trebuchet MS'" y="273.887" x="116.078">002D</tspan>
    </text>
    <text y="273.887" x="129.575" style="line-height:1.25;-inkscape-font-specification:'Trebuchet MS'" font-size="4.233" font-family="Trebuchet MS" stroke-width=".165" transform="translate(0 -266.573)">
      <tspan style="-inkscape-font-specification:'Trebuchet MS'" y="273.887" x="129.575">0071</tspan>
    </text>
    <text style="line-height:1.25;-inkscape-font-specification:'Trebuchet MS'" x="142.671" y="273.887" font-size="4.233" font-family="Trebuchet MS" stroke-width=".165" transform="translate(0 -266.573)">
      <tspan x="142.671" y="273.887" style="-inkscape-font-specification:'Trebuchet MS'">003D</tspan>
    </text>
    <text y="273.887" x="155.7" style="line-height:1.25;-inkscape-font-specification:'Trebuchet MS'" font-size="4.233" font-family="Trebuchet MS" stroke-width=".165" transform="translate(0 -266.573)">
      <tspan style="-inkscape-font-specification:'Trebuchet MS'" y="273.887" x="155.7">03B5</tspan>
    </text>
    <text style="line-height:1.25;-inkscape-font-specification:'Trebuchet MS'" x="168.93" y="273.887" font-size="4.233" font-family="Trebuchet MS" stroke-width=".165" transform="translate(0 -266.573)">
      <tspan x="168.93" y="273.887" style="-inkscape-font-specification:'Trebuchet MS'">03BB</tspan>
    </text>
    <text style="line-height:1.25;-inkscape-font-specification:'Trebuchet MS'" x="7.298" y="273.479" font-size="4.939" font-family="Trebuchet MS" stroke-width=".265" transform="translate(0 -266.573)">
      <tspan x="7.298" y="273.479" style="-inkscape-font-specification:'Courier New'" font-family="Courier New">0000lkjihgfedcba</tspan>
    </text>
    <text style="line-height:1.25;-inkscape-font-specification:'Trebuchet MS'" x="7.037" y="282.848" font-size="4.939" font-family="Trebuchet MS" stroke-width=".265" transform="translate(0 -266.573)">
      <tspan x="7.037" y="282.848" style="-inkscape-font-specification:'Courier New'" font-family="Courier New">0000000000lkjihg</tspan>
    </text>
    <text style="line-height:1.25;-inkscape-font-specification:'Trebuchet MS'" x="59.832" y="273.235" font-size="3.704" font-family="Trebuchet MS" stroke-width=".265" transform="translate(0 -266.573)">
      <tspan x="59.832" y="273.235">levelA</tspan>
    </text>
    <text style="line-height:1.25;-inkscape-font-specification:'Trebuchet MS'" x="59.504" y="282.776" font-size="3.704" font-family="Trebuchet MS" stroke-width=".265" transform="translate(0 -266.573)">
      <tspan x="59.504" y="282.776">levelB</tspan>
    </text>
    <text y="292.511" x="6.848" style="line-height:1.25;-inkscape-font-specification:'Trebuchet MS'" font-size="4.939" font-family="Trebuchet MS" stroke-width=".265" transform="translate(0 -266.573)">
      <tspan style="-inkscape-font-specification:'Courier New'" y="292.511" x="6.848" font-family="Courier New">hgfedcba00lkjihg</tspan>
    </text>
    <text style="line-height:1.25;-inkscape-font-specification:'Trebuchet MS'" x="60.184" y="292.439" font-size="3.704" font-family="Trebuchet MS" stroke-width=".265" transform="translate(0 -266.573)">
      <tspan x="60.184" y="292.439">levBA</tspan>
    </text>
    <text y="283.148" x="76.271" style="line-height:1.25;-inkscape-font-specification:'Trebuchet MS'" font-size="4.233" font-family="Trebuchet MS" stroke-width=".165" transform="translate(0 -266.573)">
      <tspan style="-inkscape-font-specification:'Trebuchet MS'" y="283.148" x="76.271">000E</tspan>
    </text>
    <text style="line-height:1.25;-inkscape-font-specification:'Trebuchet MS'" x="89.484" y="283.148" font-size="4.233" font-family="Trebuchet MS" stroke-width=".165" transform="translate(0 -266.573)">
      <tspan x="89.484" y="283.148" style="-inkscape-font-specification:'Trebuchet MS'">0000</tspan>
    </text>
    <text y="283.148" x="102.714" style="line-height:1.25;-inkscape-font-specification:'Trebuchet MS'" font-size="4.233" font-family="Trebuchet MS" stroke-width=".165" transform="translate(0 -266.573)">
      <tspan style="-inkscape-font-specification:'Trebuchet MS'" y="283.148" x="102.714">000E</tspan>
    </text>
    <text style="line-height:1.25;-inkscape-font-specification:'Trebuchet MS'" x="116.078" y="283.148" font-size="4.233" font-family="Trebuchet MS" stroke-width=".165" transform="translate(0 -266.573)">
      <tspan x="116.078" y="283.148" style="-inkscape-font-specification:'Trebuchet MS'">0000</tspan>
    </text>
    <text style="line-height:1.25;-inkscape-font-specification:'Trebuchet MS'" x="129.575" y="283.148" font-size="4.233" font-family="Trebuchet MS" stroke-width=".165" transform="translate(0 -266.573)">
      <tspan x="129.575" y="283.148" style="-inkscape-font-specification:'Trebuchet MS'">0001</tspan>
    </text>
    <text y="283.148" x="142.671" style="line-height:1.25;-inkscape-font-specification:'Trebuchet MS'" font-size="4.233" font-family="Trebuchet MS" stroke-width=".165" transform="translate(0 -266.573)">
      <tspan style="-inkscape-font-specification:'Trebuchet MS'" y="283.148" x="142.671">0000</tspan>
    </text>
    <text style="line-height:1.25;-inkscape-font-specification:'Trebuchet MS'" x="155.7" y="283.148" font-size="4.233" font-family="Trebuchet MS" stroke-width=".165" transform="translate(0 -266.573)">
      <tspan x="155.7" y="283.148" style="-inkscape-font-specification:'Trebuchet MS'">000E</tspan>
    </text>
    <text y="283.148" x="168.93" style="line-height:1.25;-inkscape-font-specification:'Trebuchet MS'" font-size="4.233" font-family="Trebuchet MS" stroke-width=".165" transform="translate(0 -266.573)">
      <tspan style="-inkscape-font-specification:'Trebuchet MS'" y="283.148" x="168.93">000E</tspan>
    </text>
    <text style="line-height:1.25;-inkscape-font-specification:'Trebuchet MS'" x="76.271" y="292.408" font-size="4.233" font-family="Trebuchet MS" stroke-width=".165" transform="translate(0 -266.573)">
      <tspan x="76.271" y="292.408" style="-inkscape-font-specification:'Trebuchet MS'">B10E</tspan>
    </text>
    <text y="292.408" x="89.484" style="line-height:1.25;-inkscape-font-specification:'Trebuchet MS'" font-size="4.233" font-family="Trebuchet MS" stroke-width=".165" transform="translate(0 -266.573)">
      <tspan style="-inkscape-font-specification:'Trebuchet MS'" y="292.408" x="89.484">2B00</tspan>
    </text>
    <text style="line-height:1.25;-inkscape-font-specification:'Trebuchet MS'" x="102.714" y="292.408" font-size="4.233" font-family="Trebuchet MS" stroke-width=".165" transform="translate(0 -266.573)">
      <tspan x="102.714" y="292.408" style="-inkscape-font-specification:'Trebuchet MS'">B20E</tspan>
    </text>
    <text y="292.408" x="116.078" style="line-height:1.25;-inkscape-font-specification:'Trebuchet MS'" font-size="4.233" font-family="Trebuchet MS" stroke-width=".165" transform="translate(0 -266.573)">
      <tspan style="-inkscape-font-specification:'Trebuchet MS'" y="292.408" x="116.078">2D00</tspan>
    </text>
    <text y="292.408" x="129.575" style="line-height:1.25;-inkscape-font-specification:'Trebuchet MS'" font-size="4.233" font-family="Trebuchet MS" stroke-width=".165" transform="translate(0 -266.573)">
      <tspan style="-inkscape-font-specification:'Trebuchet MS'" y="292.408" x="129.575">7101</tspan>
    </text>
    <text style="line-height:1.25;-inkscape-font-specification:'Trebuchet MS'" x="142.671" y="292.408" font-size="4.233" font-family="Trebuchet MS" stroke-width=".165" transform="translate(0 -266.573)">
      <tspan x="142.671" y="292.408" style="-inkscape-font-specification:'Trebuchet MS'">3D00</tspan>
    </text>
    <text y="292.408" x="155.7" style="line-height:1.25;-inkscape-font-specification:'Trebuchet MS'" font-size="4.233" font-family="Trebuchet MS" stroke-width=".165" transform="translate(0 -266.573)">
      <tspan style="-inkscape-font-specification:'Trebuchet MS'" y="292.408" x="155.7">B50E</tspan>
    </text>
    <text style="line-height:1.25;-inkscape-font-specification:'Trebuchet MS'" x="168.93" y="292.408" font-size="4.233" font-family="Trebuchet MS" stroke-width=".165" transform="translate(0 -266.573)">
      <tspan x="168.93" y="292.408" style="-inkscape-font-specification:'Trebuchet MS'">BB0E</tspan>
    </text>
    <text style="line-height:1.25;-inkscape-font-specification:'Times New Roman, '" x="30.256" y="270.821" font-size="3.175" font-family="Times New Roman" stroke-width=".265" transform="translate(0 -266.573)">
      <tspan x="30.256" y="270.821" font-weight="700">,</tspan>
    </text>
    <text y="280.042" x="30.256" style="line-height:1.25;-inkscape-font-specification:'Times New Roman, '" font-size="3.175" font-family="Times New Roman" stroke-width=".265" transform="translate(0 -266.573)">
      <tspan y="280.042" x="30.256" font-weight="700">,</tspan>
    </text>
    <text style="line-height:1.25;-inkscape-font-specification:'Times New Roman, '" x="30.256" y="289.764" font-size="3.175" font-family="Times New Roman" stroke-width=".265" transform="translate(0 -266.573)">
      <tspan x="30.256" y="289.764" font-weight="700">,</tspan>
    </text>
  </g>
</svg>
