<svg width="32" height="32" version="1.1" viewBox="0 0 8.4666659 8.4666659" xmlns="http://www.w3.org/2000/svg">
 <g transform="translate(0 -288.53)" fill="#fff" shape-rendering="auto">
  <path transform="matrix(.26458 0 0 .26458 0 288.53)" d="m4.998 0.50195c-2.4675 0-4.4961 2.0266-4.4961 4.4941-6.719e-5 7.3261 0 14.673 0 22.006 0 2.4675 2.0286 4.4961 4.4961 4.4961 7.3263 6.1e-5 14.673 0 22.006 0 2.4675 0 4.4941-2.0286 4.4941-4.4961 6.1e-5 -7.3263 0-14.673 0-22.006 0-2.4675-2.0266-4.4941-4.4941-4.4941-7.6578 2.3617e-4 -15.447 5.906e-5 -22.006-1.2e-7zm0 2.9961h22.006c0.8462 0 1.498 0.65185 1.498 1.498v22.006c0 0.8462-0.65185 1.498-1.498 1.498h-22.006c-0.84619 0-1.5-0.65185-1.5-1.498v-22.006c0-0.8462 0.65381-1.498 1.5-1.498z"/>
  <path transform="matrix(.26458 0 0 .26458 0 288.53)" d="m6.998 14.498c-2.0401-0.03783-2.0401 3.0417 0 3.0039h18.004c2.0401 0.03783 2.0401-3.0417 0-3.0039"/>
 </g>
</svg>
