<svg xmlns="http://www.w3.org/2000/svg" width="700" height="140" viewBox="0 0 185.208 37.042">
  <defs>
    <marker id="a" orient="auto" overflow="visible">
      <path d="M-5.231-2.42L1.324-.01-5.23 2.401c1.047-1.423 1.041-3.37 0-4.821z" fill-rule="evenodd" stroke="#000" stroke-width=".375" stroke-linejoin="round"/>
    </marker>
    <marker id="b" orient="auto" overflow="visible">
      <path d="M-5.231-2.42L1.324-.01-5.23 2.401c1.047-1.423 1.041-3.37 0-4.821z" fill-rule="evenodd" stroke="#000" stroke-width=".375" stroke-linejoin="round"/>
    </marker>
    <marker id="c" orient="auto" overflow="visible">
      <path d="M-5.231-2.42L1.324-.01-5.23 2.401c1.047-1.423 1.041-3.37 0-4.821z" fill-rule="evenodd" stroke="#000" stroke-width=".375" stroke-linejoin="round"/>
    </marker>
    <marker id="d" orient="auto" overflow="visible">
      <path d="M-5.231-2.42L1.324-.01-5.23 2.401c1.047-1.423 1.041-3.37 0-4.821z" fill-rule="evenodd" stroke="#000" stroke-width=".375" stroke-linejoin="round"/>
    </marker>
    <marker id="e" orient="auto" overflow="visible">
      <path d="M-5.231-2.42L1.324-.01-5.23 2.401c1.047-1.423 1.041-3.37 0-4.821z" fill-rule="evenodd" stroke="#000" stroke-width=".375" stroke-linejoin="round"/>
    </marker>
  </defs>
  <g stroke-width=".265">
    <text style="line-height:1.25;-inkscape-font-specification:'Trebuchet MS'" x="13.33" y="264.038" font-weight="400" font-size="4.939" font-family="Trebuchet MS" letter-spacing="0" word-spacing="0" transform="translate(0 -259.958)">
      <tspan x="13.33" y="264.038" style="-inkscape-font-specification:'Courier New'" font-family="Courier New">000000000gfedcba</tspan>
    </text>
    <text style="line-height:1.25;-inkscape-font-specification:'Trebuchet MS'" x="13.563" y="275.401" font-weight="400" font-size="4.939" font-family="Trebuchet MS" letter-spacing="0" word-spacing="0" transform="translate(0 -259.958)">
      <tspan x="13.563" y="275.401" style="-inkscape-font-specification:'Courier New'" font-family="Courier New">110mlkji10fedcba</tspan>
    </text>
    <text style="line-height:1.25;-inkscape-font-specification:'Trebuchet MS'" x="13.456" y="269.628" font-weight="400" font-size="4.939" font-family="Trebuchet MS" letter-spacing="0" word-spacing="0" transform="translate(0 -259.958)">
      <tspan x="13.456" y="269.628" style="-inkscape-font-specification:'Courier New'" font-family="Courier New">10nmlkji10fedcba</tspan>
    </text>
    <text style="line-height:1.25;-inkscape-font-specification:'Trebuchet MS'" x="13.864" y="286.544" font-weight="400" font-size="4.939" font-family="Trebuchet MS" letter-spacing="0" word-spacing="0" transform="translate(0 -259.958)">
      <tspan x="13.864" y="286.544" style="-inkscape-font-specification:'Courier New'" font-family="Courier New">0011111101111111</tspan>
    </text>
    <text style="line-height:1.25;-inkscape-font-specification:'Trebuchet MS'" x="14.334" y="296.069" font-weight="400" font-size="4.939" font-family="Trebuchet MS" letter-spacing="0" word-spacing="0" transform="translate(0 -259.958)">
      <tspan x="14.334" y="296.069" style="-inkscape-font-specification:'Courier New'" font-family="Courier New">00nmlkji0gfedcba</tspan>
    </text>
    <text style="line-height:1.25;-inkscape-font-specification:'Trebuchet MS'" x="134.247" y="269.243" font-weight="400" font-size="4.939" font-family="Trebuchet MS" letter-spacing="0" word-spacing="0" transform="translate(0 -259.958)">
      <tspan x="134.247" y="269.243" style="-inkscape-font-specification:'Courier New'" font-family="Courier New">00nmlkji0gfedcba</tspan>
    </text>
    <text style="line-height:1.25;-inkscape-font-specification:'Trebuchet MS'" x="145.895" y="276.158" font-weight="400" font-size="4.939" font-family="Trebuchet MS" letter-spacing="0" word-spacing="0" transform="translate(0 -259.958)">
      <tspan x="145.895" y="276.158" style="-inkscape-font-specification:'Courier New'" font-family="Courier New">nmlkji</tspan>
    </text>
    <text style="line-height:1.25;-inkscape-font-specification:'Trebuchet MS'" x="75.207" y="269.279" font-weight="400" font-size="4.939" font-family="Trebuchet MS" letter-spacing="0" word-spacing="0" transform="translate(0 -259.958)">
      <tspan x="75.207" y="269.279" style="-inkscape-font-specification:'Courier New'" font-family="Courier New">000000001110tsrq</tspan>
    </text>
    <text style="line-height:1.25;-inkscape-font-specification:'Trebuchet MS'" x="75.137" y="279.244" font-weight="400" font-size="4.939" font-family="Trebuchet MS" letter-spacing="0" word-spacing="0" transform="translate(0 -259.958)">
      <tspan x="75.137" y="279.244" style="-inkscape-font-specification:'Courier New'" font-family="Courier New">tsrq000000000000</tspan>
    </text>
    <path d="M122.8 6.472v3.373l-35.698 6.416-.023 3.902" fill="none" stroke="#000"/>
    <path d="M110.733 6.472v3.373l-35.651 6.416-.024 3.902m0 0h12.02" fill="none" stroke="#000"/>
    <text style="line-height:1.25;-inkscape-font-specification:'Trebuchet MS'" x="99.91" y="292.735" font-weight="400" font-size="4.939" font-family="Trebuchet MS" letter-spacing="0" word-spacing="0" transform="translate(0 -259.958)">
      <tspan x="99.91" y="292.735" style="-inkscape-font-specification:'Courier New'" font-family="Courier New">tsrqnmlkjifedcba</tspan>
    </text>
    <text y="281.771" x="145.895" style="line-height:1.25;-inkscape-font-specification:'Trebuchet MS'" font-weight="400" font-size="4.939" font-family="Trebuchet MS" letter-spacing="0" word-spacing="0" transform="translate(0 -259.958)">
      <tspan style="-inkscape-font-specification:'Courier New'" y="281.771" x="145.895" font-family="Courier New">nmlkjifedcba</tspan>
    </text>
    <text style="line-height:1.25;-inkscape-font-specification:'Trebuchet MS'" x="160.862" y="286.659" font-weight="400" font-size="4.939" font-family="Trebuchet MS" letter-spacing="0" word-spacing="0" transform="translate(0 -259.958)">
      <tspan x="160.862" y="286.659" style="-inkscape-font-specification:'Courier New'" font-family="Courier New">g</tspan>
    </text>
    <text y="287.078" x="159.324" style="line-height:1.25;-inkscape-font-specification:'Trebuchet MS'" font-weight="400" font-size="4.233" font-family="Trebuchet MS" letter-spacing="0" word-spacing="0" transform="translate(0 -259.958)">
      <tspan y="287.078" x="159.324">(</tspan>
    </text>
    <text y="286.998" x="163.757" style="line-height:1.25;-inkscape-font-specification:'Trebuchet MS'" font-weight="400" font-size="4.233" font-family="Trebuchet MS" letter-spacing="0" word-spacing="0" transform="translate(0 -259.958)">
      <tspan y="286.998" x="163.757">)</tspan>
    </text>
  </g>
  <text style="line-height:1.25;-inkscape-font-specification:'Trebuchet MS'" x="32.373" y="23.314" font-weight="400" font-size="4.233" font-family="Trebuchet MS" letter-spacing="0" word-spacing="0" stroke-width=".265" transform="translate(0 -2.646)">
    <tspan x="32.373" y="23.314" font-size="3.704">(and)</tspan>
  </text>
  <text style="line-height:1.25;-inkscape-font-specification:'Trebuchet MS'" x="5.812" y="-63.934" transform="rotate(90 1.323 -1.323)" font-weight="400" font-size="4.233" font-family="Trebuchet MS" letter-spacing="0" word-spacing="0" stroke-width=".265">
    <tspan x="5.812" y="-63.934" font-size="3.704">one of</tspan>
  </text>
  <path d="M59.986.748h2.646v15.875h-2.646" fill="none" stroke="#000" stroke-width=".529"/>
  <path d="M18.976 29.853v4.497" fill="none" stroke="#000" stroke-width=".265" marker-end="url(#a)" transform="translate(0 -2.646)"/>
  <path d="M37.497 29.853v4.497" fill="none" stroke="#000" stroke-width=".265" marker-end="url(#b)" transform="translate(0 -2.646)"/>
  <path d="M57.34 29.853v4.497" fill="none" stroke="#000" stroke-width=".265" marker-end="url(#c)" transform="translate(0 -2.646)"/>
  <text style="line-height:1.25;-inkscape-font-specification:'Trebuchet MS'" x="37.166" y="36.004" font-weight="400" font-size="4.233" font-family="Trebuchet MS" letter-spacing="0" word-spacing="0" stroke-width=".265" transform="translate(0 -2.646)">
    <tspan x="37.166" y="36.004">,</tspan>
  </text>
  <text style="line-height:1.25;-inkscape-font-specification:'Trebuchet MS'" x="36.587" y="26.059" font-weight="400" font-size="4.233" font-family="Trebuchet MS" letter-spacing="0" word-spacing="0" stroke-width=".265" transform="translate(0 -2.646)">
    <tspan x="36.587" y="26.059">,</tspan>
  </text>
  <text style="line-height:1.25;-inkscape-font-specification:'Trebuchet MS'" x="36.399" y="3.862" font-weight="400" font-size="4.233" font-family="Trebuchet MS" letter-spacing="0" word-spacing="0" stroke-width=".265" transform="translate(0 -2.646)">
    <tspan x="36.399" y="3.862">,</tspan>
  </text>
  <text style="line-height:1.25;-inkscape-font-specification:'Trebuchet MS'" x="36.294" y="9.589" font-weight="400" font-size="4.233" font-family="Trebuchet MS" letter-spacing="0" word-spacing="0" stroke-width=".265" transform="translate(0 -2.646)">
    <tspan x="36.294" y="9.589">,</tspan>
  </text>
  <text style="line-height:1.25;-inkscape-font-specification:'Trebuchet MS'" x="36.228" y="15.328" font-weight="400" font-size="4.233" font-family="Trebuchet MS" letter-spacing="0" word-spacing="0" stroke-width=".265" transform="translate(0 -2.646)">
    <tspan x="36.228" y="15.328">,</tspan>
  </text>
  <text style="line-height:1.25;-inkscape-font-specification:'Trebuchet MS'" x="156.911" y="9.01" font-weight="400" font-size="4.233" font-family="Trebuchet MS" letter-spacing="0" word-spacing="0" stroke-width=".265" transform="translate(0 -2.646)">
    <tspan x="156.911" y="9.01">,</tspan>
  </text>
  <path d="M139.948 6.235v3.11l5.854 3.855-.002 9.584m12.015-15.227v1.787l5.854 3.856-.002 9.525m18.183.059V6.359" fill="none" stroke="#000" stroke-width=".265"/>
  <text style="line-height:1.25;-inkscape-font-specification:'Trebuchet MS'" x="2.432" y="11.953" font-weight="400" font-size="4.233" font-family="Trebuchet MS" letter-spacing="0" word-spacing="0" stroke-width=".265" transform="translate(0 -2.646)">
    <tspan x="2.432" y="11.953" font-size="3.704">Rab:</tspan>
  </text>
  <text style="line-height:1.25;-inkscape-font-specification:'Trebuchet MS'" x="2.152" y="38.663" font-weight="400" font-size="4.233" font-family="Trebuchet MS" letter-spacing="0" word-spacing="0" stroke-width=".265" transform="translate(0 -2.646)">
    <tspan x="2.152" y="38.663" font-size="3.704">Rab<tspan font-size="2.469" baseline-shift="super">1</tspan>:</tspan>
  </text>
  <text style="line-height:1.25;-inkscape-font-specification:'Trebuchet MS'" x="98.064" y="9.275" font-weight="400" font-size="4.233" font-family="Trebuchet MS" letter-spacing="0" word-spacing="0" stroke-width=".265" transform="translate(0 -2.646)">
    <tspan x="98.064" y="9.275">,</tspan>
  </text>
  <text style="line-height:1.25;-inkscape-font-specification:'Trebuchet MS'" x="96.394" y="6.681" font-weight="400" font-size="4.233" font-family="Trebuchet MS" letter-spacing="0" word-spacing="0" stroke-width=".265" transform="translate(0 -2.646)">
    <tspan x="96.394" y="6.681" font-size="3.704">Rc:</tspan>
  </text>
  <text style="line-height:1.25;-inkscape-font-specification:'Trebuchet MS'" x="153.89" y="6.686" font-weight="400" font-size="4.233" font-family="Trebuchet MS" letter-spacing="0" word-spacing="0" stroke-width=".265" transform="translate(0 -2.646)">
    <tspan x="153.89" y="6.686" font-size="3.704">Rab<tspan font-size="2.469" baseline-shift="super">1</tspan>:</tspan>
  </text>
  <text y="19.331" x="98.064" style="line-height:1.25;-inkscape-font-specification:'Trebuchet MS'" font-weight="400" font-size="4.233" font-family="Trebuchet MS" letter-spacing="0" word-spacing="0" stroke-width=".265" transform="translate(0 -2.646)">
    <tspan y="19.331" x="98.064">,</tspan>
  </text>
  <text y="21.699" x="157.295" style="line-height:1.25;-inkscape-font-specification:'Trebuchet MS'" font-weight="400" font-size="4.233" font-family="Trebuchet MS" letter-spacing="0" word-spacing="0" stroke-width=".265" transform="translate(0 -2.646)">
    <tspan y="21.699" x="157.295">,</tspan>
  </text>
  <path d="M145.8 22.784h36.05" fill="none" stroke="#000" stroke-width=".265"/>
  <path d="M166.015 15.848h2.307m-1.153-1.153v2.306" fill="none" stroke="#000" stroke-width=".231" stroke-linecap="round"/>
  <text style="line-height:1.25;-inkscape-font-specification:'Trebuchet MS'" x="90.583" y="35.277" font-weight="400" font-size="4.233" font-family="Trebuchet MS" letter-spacing="0" word-spacing="0" stroke-width=".265" transform="translate(0 -2.646)">
    <tspan x="90.583" y="35.277" font-size="3.704">sum:</tspan>
  </text>
  <path d="M122.887 25.723h2.306m-1.153-1.153v2.306" fill="none" stroke="#000" stroke-width=".231" stroke-linecap="round"/>
  <text style="line-height:1.25;-inkscape-font-specification:'Trebuchet MS'" x="122.988" y="32.726" font-weight="400" font-size="4.233" font-family="Trebuchet MS" letter-spacing="0" word-spacing="0" stroke-width=".265" transform="translate(0 -2.646)">
    <tspan x="122.988" y="32.726">,</tspan>
  </text>
  <path d="M105.302 22.885c9.482.636 14.583 2.334 17.065 8.07" fill="none" stroke="#000" stroke-width=".265" marker-end="url(#d)" transform="translate(0 -2.646)"/>
  <path d="M144.33 22.528c-7.65.173-16.372 2.069-18.587 8.334" fill="none" stroke="#000" stroke-width=".265" marker-end="url(#e)" transform="translate(0 -2.646)"/>
</svg>
