<svg xmlns="http://www.w3.org/2000/svg" width="500" height="115" viewBox="0 0 132.292 30.427">
  <g transform="translate(0 -266.573)">
    <rect width="6.615" height="6.615" x="20.505" y="269.219" ry="0" fill="#faa" stroke="#000" stroke-width=".661" stroke-linecap="round"/>
    <rect ry="0" y="269.219" x="27.12" height="6.615" width="6.615" fill="#acf" stroke="#000" stroke-width=".661" stroke-linecap="round"/>
    <rect ry="0" y="269.219" x="33.734" height="6.615" width="6.615" fill="#ececec" stroke="#000" stroke-width=".661" stroke-linecap="round"/>
    <rect width="6.615" height="6.615" x="40.349" y="269.219" ry="0" fill="#ececec" stroke="#000" stroke-width=".661" stroke-linecap="round"/>
    <rect ry="0" y="269.219" x="46.964" height="6.615" width="6.615" fill="#faa" stroke="#000" stroke-width=".661" stroke-linecap="round"/>
    <rect width="6.615" height="6.615" x="53.578" y="269.219" ry="0" fill="#e5ff80" stroke="#000" stroke-width=".661" stroke-linecap="round"/>
    <rect width="6.615" height="6.615" x="60.193" y="269.219" ry="0" fill="#ececec" stroke="#000" stroke-width=".661" stroke-linecap="round"/>
    <rect ry="0" y="269.219" x="66.807" height="6.615" width="6.615" fill="#faa" stroke="#000" stroke-width=".661" stroke-linecap="round"/>
    <rect ry="0" y="269.219" x="73.422" height="6.615" width="6.615" fill="#e5ff80" stroke="#000" stroke-width=".661" stroke-linecap="round"/>
    <rect width="6.615" height="6.615" x="80.036" y="269.219" ry="0" fill="#ececec" stroke="#000" stroke-width=".661" stroke-linecap="round"/>
    <rect width="6.615" height="6.615" x="86.651" y="269.219" ry="0" fill="#faa" stroke="#000" stroke-width=".661" stroke-linecap="round"/>
    <rect ry="0" y="269.219" x="93.266" height="6.615" width="6.615" fill="#e5ff80" stroke="#000" stroke-width=".661" stroke-linecap="round"/>
    <rect width="6.615" height="6.615" x="99.88" y="269.219" ry="0" fill="#ececec" stroke="#000" stroke-width=".661" stroke-linecap="round"/>
    <rect ry="0" y="269.219" x="106.495" height="6.615" width="6.615" fill="none" stroke="#000" stroke-width=".661" stroke-linecap="round"/>
    <rect ry="0" y="269.219" x="113.109" height="6.615" width="6.615" fill="none" stroke="#000" stroke-width=".661" stroke-linecap="round"/>
    <rect width="6.615" height="6.615" x="119.724" y="269.219" ry="0" fill="none" stroke="#000" stroke-width=".661" stroke-linecap="round"/>
    <g fill="none" stroke="#000" stroke-linecap="round">
      <rect ry="0" y="289.063" x="10.583" height="6.615" width="13.229" stroke-width=".661"/>
      <rect ry="0" y="289.063" x="17.198" height="6.615" width="6.615" stroke-width=".265"/>
      <rect ry="0" y="289.063" x="10.583" height="6.615" width="6.615" stroke-width=".265"/>
    </g>
    <g stroke="#000" stroke-linecap="round">
      <rect width="6.615" height="6.615" x="10.583" y="282.448" ry="0" fill="#faa" stroke-width=".265"/>
      <rect width="13.229" height="6.615" x="10.583" y="282.448" ry="0" fill="none" stroke-width=".661"/>
      <rect width="6.615" height="6.615" x="17.198" y="282.448" ry="0" fill="none" stroke-width=".265"/>
    </g>
    <g stroke="#000" stroke-linecap="round">
      <rect width="6.615" height="6.615" x="23.813" y="289.063" ry="0" fill="#acf" stroke-width=".265"/>
      <rect width="13.229" height="6.615" x="23.813" y="289.063" ry="0" fill="none" stroke-width=".661"/>
      <rect width="6.615" height="6.615" x="30.427" y="289.063" ry="0" fill="none" stroke-width=".265"/>
    </g>
    <g transform="translate(26.458)" fill="none" stroke="#000" stroke-linecap="round">
      <rect width="13.229" height="6.615" x="10.583" y="289.063" ry="0" stroke-width=".661"/>
      <rect width="6.615" height="6.615" x="17.198" y="289.063" ry="0" stroke-width=".265"/>
      <rect width="6.615" height="6.615" x="10.583" y="289.063" ry="0" stroke-width=".265"/>
    </g>
    <g stroke="#000" stroke-linecap="round">
      <rect ry="0" y="282.448" x="37.042" height="6.615" width="6.615" fill="#faa" stroke-width=".265"/>
      <rect ry="0" y="282.448" x="37.042" height="6.615" width="13.229" fill="none" stroke-width=".661"/>
      <rect ry="0" y="282.448" x="43.656" height="6.615" width="6.615" fill="none" stroke-width=".265"/>
    </g>
    <g transform="translate(39.687)" fill="none" stroke="#000" stroke-linecap="round">
      <rect ry="0" y="289.063" x="10.583" height="6.615" width="13.229" stroke-width=".661"/>
      <rect ry="0" y="289.063" x="17.198" height="6.615" width="6.615" stroke-width=".265"/>
      <rect ry="0" y="289.063" x="10.583" height="6.615" width="6.615" stroke-width=".265"/>
    </g>
    <g stroke="#000" stroke-linecap="round">
      <rect width="6.615" height="6.615" x="30.427" y="282.448" ry="0" fill="#ececec" stroke-width=".265"/>
      <rect width="6.615" height="6.615" x="23.813" y="282.448" ry="0" fill="#ececec" stroke-width=".265"/>
      <rect width="13.229" height="6.615" x="23.813" y="282.448" ry="0" fill="none" stroke-width=".661"/>
      <rect width="6.615" height="6.615" x="50.271" y="282.448" ry="0" fill="#ececec" stroke-width=".265"/>
      <rect width="6.615" height="6.615" x="56.885" y="282.448" ry="0" fill="#e5ff80" stroke-width=".265"/>
      <rect width="13.229" height="6.615" x="50.271" y="282.448" ry="0" fill="none" stroke-width=".661"/>
    </g>
    <g transform="translate(52.917)" fill="none" stroke="#000" stroke-linecap="round">
      <rect width="13.229" height="6.615" x="10.583" y="289.063" ry="0" stroke-width=".661"/>
      <rect width="6.615" height="6.615" x="17.198" y="289.063" ry="0" stroke-width=".265"/>
      <rect width="6.615" height="6.615" x="10.583" y="289.063" ry="0" stroke-width=".265"/>
    </g>
    <g stroke="#000" stroke-linecap="round">
      <rect ry="0" y="282.448" x="63.5" height="6.615" width="6.615" fill="#faa" stroke-width=".265"/>
      <rect ry="0" y="282.448" x="63.5" height="6.615" width="13.229" fill="none" stroke-width=".661"/>
      <rect ry="0" y="282.448" x="70.115" height="6.615" width="6.615" fill="none" stroke-width=".265"/>
    </g>
    <g transform="translate(66.146)" fill="none" stroke="#000" stroke-linecap="round">
      <rect ry="0" y="289.063" x="10.583" height="6.615" width="13.229" stroke-width=".661"/>
      <rect ry="0" y="289.063" x="17.198" height="6.615" width="6.615" stroke-width=".265"/>
      <rect ry="0" y="289.063" x="10.583" height="6.615" width="6.615" stroke-width=".265"/>
    </g>
    <g stroke="#000" stroke-linecap="round">
      <rect width="6.615" height="6.615" x="76.729" y="282.448" ry="0" fill="#ececec" stroke-width=".265"/>
      <rect width="6.615" height="6.615" x="83.344" y="282.448" ry="0" fill="#e5ff80" stroke-width=".265"/>
      <rect width="13.229" height="6.615" x="76.729" y="282.448" ry="0" fill="none" stroke-width=".661"/>
    </g>
    <g transform="translate(79.375)" fill="none" stroke="#000" stroke-linecap="round">
      <rect ry="0" y="289.063" x="10.583" height="6.615" width="13.229" stroke-width=".661"/>
      <rect ry="0" y="289.063" x="17.198" height="6.615" width="6.615" stroke-width=".265"/>
      <rect ry="0" y="289.063" x="10.583" height="6.615" width="6.615" stroke-width=".265"/>
    </g>
    <g stroke="#000" stroke-linecap="round">
      <rect width="6.615" height="6.615" x="89.958" y="282.448" ry="0" fill="#faa" stroke-width=".265"/>
      <rect width="13.229" height="6.615" x="89.958" y="282.448" ry="0" fill="none" stroke-width=".661"/>
      <rect width="6.615" height="6.615" x="96.573" y="282.448" ry="0" fill="none" stroke-width=".265"/>
    </g>
    <g transform="translate(92.604)" fill="none" stroke="#000" stroke-linecap="round">
      <rect width="13.229" height="6.615" x="10.583" y="289.063" ry="0" stroke-width=".661"/>
      <rect width="6.615" height="6.615" x="17.198" y="289.063" ry="0" stroke-width=".265"/>
      <rect width="6.615" height="6.615" x="10.583" y="289.063" ry="0" stroke-width=".265"/>
    </g>
    <g stroke="#000" stroke-linecap="round">
      <rect ry="0" y="282.448" x="103.188" height="6.615" width="6.615" fill="#ececec" stroke-width=".265"/>
      <rect ry="0" y="282.448" x="109.802" height="6.615" width="6.615" fill="#e5ff80" stroke-width=".265"/>
      <rect ry="0" y="282.448" x="103.188" height="6.615" width="13.229" fill="none" stroke-width=".661"/>
    </g>
    <path d="M20.505 275.833l-9.922 6.615m16.537-6.615l-3.307 6.615m23.151-6.615l-9.922 6.615m16.536-6.615l-3.307 6.615m16.536-6.615l-3.307 6.615m9.922-6.615l3.307 6.615m9.922-6.615l3.307 6.615m3.308-6.615l9.921 6.615m3.308-6.615l9.922 6.615" fill="none" stroke="#000" stroke-width=".265"/>
    <text style="line-height:1.25;-inkscape-font-specification:'Trebuchet MS'" x="11.826" y="273.388" font-weight="400" font-size="3.704" font-family="Trebuchet MS" letter-spacing="0" word-spacing="0" stroke-width=".265">
      <tspan x="11.826" y="273.388">reg</tspan>
    </text>
    <text style="line-height:1.25;-inkscape-font-specification:'Trebuchet MS'" x="1.724" y="286.778" font-weight="400" font-size="3.704" font-family="Trebuchet MS" letter-spacing="0" word-spacing="0" stroke-width=".265">
      <tspan x="1.724" y="286.778">Rab</tspan>
    </text>
    <text style="line-height:1.25;-inkscape-font-specification:'Trebuchet MS'" x="2.646" y="293.606" font-weight="400" font-size="3.704" font-family="Trebuchet MS" letter-spacing="0" word-spacing="0" stroke-width=".265">
      <tspan x="2.646" y="293.606">Rc</tspan>
    </text>
    <path d="M108.48 267.896l18.52 9.26m0-9.26l-18.52 9.26" fill="none" stroke="#000" stroke-width=".529"/>
  </g>
  <g letter-spacing="0" word-spacing="0" stroke-width=".265" font-weight="700" font-size="3.704" font-family="Courier New">
    <text style="line-height:1.25;-inkscape-font-specification:'Courier New Bold'" x="21.609" y="273.614" transform="translate(0 -266.573)">
      <tspan x="21.609" y="273.614" style="-inkscape-font-specification:'Courier New Bold'">78</tspan>
    </text>
    <text style="line-height:1.25;-inkscape-font-specification:'Courier New Bold'" x="35.021" y="273.664" transform="translate(0 -266.573)">
      <tspan x="35.021" y="273.664" style="-inkscape-font-specification:'Courier New Bold'">89</tspan>
    </text>
    <text style="line-height:1.25;-inkscape-font-specification:'Courier New Bold'" x="41.382" y="273.571" transform="translate(0 -266.573)">
      <tspan x="41.382" y="273.571" style="-inkscape-font-specification:'Courier New Bold'">A4</tspan>
    </text>
    <text y="273.614" x="28.11" style="line-height:1.25;-inkscape-font-specification:'Courier New Bold'" transform="translate(0 -266.573)">
      <tspan style="-inkscape-font-specification:'Courier New Bold'" y="273.614" x="28.11">E2</tspan>
    </text>
    <text y="273.614" x="48.082" style="line-height:1.25;-inkscape-font-specification:'Courier New Bold'" transform="translate(0 -266.573)">
      <tspan style="-inkscape-font-specification:'Courier New Bold'" y="273.614" x="48.082">28</tspan>
    </text>
    <text style="line-height:1.25;-inkscape-font-specification:'Courier New Bold'" x="54.583" y="273.614" transform="translate(0 -266.573)">
      <tspan x="54.583" y="273.614" style="-inkscape-font-specification:'Courier New Bold'">CE</tspan>
    </text>
    <text style="line-height:1.25;-inkscape-font-specification:'Courier New Bold'" x="61.311" y="273.614" transform="translate(0 -266.573)">
      <tspan x="61.311" y="273.614" style="-inkscape-font-specification:'Courier New Bold'">B1</tspan>
    </text>
    <text y="273.614" x="67.812" style="line-height:1.25;-inkscape-font-specification:'Courier New Bold'" transform="translate(0 -266.573)">
      <tspan style="-inkscape-font-specification:'Courier New Bold'" y="273.614" x="67.812">2B</tspan>
    </text>
    <text y="273.614" x="74.461" style="line-height:1.25;-inkscape-font-specification:'Courier New Bold'" transform="translate(0 -266.573)">
      <tspan style="-inkscape-font-specification:'Courier New Bold'" y="273.614" x="74.461">CE</tspan>
    </text>
    <text y="273.664" x="87.874" style="line-height:1.25;-inkscape-font-specification:'Courier New Bold'" transform="translate(0 -266.573)">
      <tspan style="-inkscape-font-specification:'Courier New Bold'" y="273.664" x="87.874">29</tspan>
    </text>
    <text y="273.571" x="94.235" style="line-height:1.25;-inkscape-font-specification:'Courier New Bold'" transform="translate(0 -266.573)">
      <tspan style="-inkscape-font-specification:'Courier New Bold'" y="273.571" x="94.235">C2</tspan>
    </text>
    <text style="line-height:1.25;-inkscape-font-specification:'Courier New Bold'" x="80.963" y="273.614" transform="translate(0 -266.573)">
      <tspan x="80.963" y="273.614" style="-inkscape-font-specification:'Courier New Bold'">B2</tspan>
    </text>
    <text style="line-height:1.25;-inkscape-font-specification:'Courier New Bold'" x="100.934" y="273.614" transform="translate(0 -266.573)">
      <tspan x="100.934" y="273.614" style="-inkscape-font-specification:'Courier New Bold'">B2</tspan>
    </text>
    <text y="273.614" x="107.436" style="line-height:1.25;-inkscape-font-specification:'Courier New Bold'" transform="translate(0 -266.573)">
      <tspan style="-inkscape-font-specification:'Courier New Bold'" y="273.614" x="107.436">CE</tspan>
    </text>
    <text y="273.614" x="114.164" style="line-height:1.25;-inkscape-font-specification:'Courier New Bold'" transform="translate(0 -266.573)">
      <tspan style="-inkscape-font-specification:'Courier New Bold'" y="273.614" x="114.164">B3</tspan>
    </text>
    <text style="line-height:1.25;-inkscape-font-specification:'Courier New Bold'" x="120.665" y="273.614" transform="translate(0 -266.573)">
      <tspan x="120.665" y="273.614" style="-inkscape-font-specification:'Courier New Bold'">C2</tspan>
    </text>
    <text style="line-height:1.25;-inkscape-font-specification:'Courier New Bold'" x="11.822" y="287.041" transform="translate(0 -266.573)">
      <tspan x="11.822" y="287.041" style="-inkscape-font-specification:'Courier New Bold'">78</tspan>
    </text>
    <text y="293.616" x="24.953" style="line-height:1.25;-inkscape-font-specification:'Courier New Bold'" transform="translate(0 -266.573)">
      <tspan style="-inkscape-font-specification:'Courier New Bold'" y="293.616" x="24.953">E2</tspan>
    </text>
    <text style="line-height:1.25;-inkscape-font-specification:'Courier New Bold'" x="31.409" y="286.901" transform="translate(0 -266.573)">
      <tspan x="31.409" y="286.901" style="-inkscape-font-specification:'Courier New Bold'">89</tspan>
    </text>
    <text style="line-height:1.25;-inkscape-font-specification:'Courier New Bold'" x="24.93" y="286.945" transform="translate(0 -266.573)">
      <tspan x="24.93" y="286.945" style="-inkscape-font-specification:'Courier New Bold'">A4</tspan>
    </text>
    <text y="286.807" x="38.427" style="line-height:1.25;-inkscape-font-specification:'Courier New Bold'" transform="translate(0 -266.573)">
      <tspan style="-inkscape-font-specification:'Courier New Bold'" y="286.807" x="38.427">28</tspan>
    </text>
    <text style="line-height:1.25;-inkscape-font-specification:'Courier New Bold'" x="57.877" y="286.93" transform="translate(0 -266.573)">
      <tspan x="57.877" y="286.93" style="-inkscape-font-specification:'Courier New Bold'">CE</tspan>
    </text>
    <text style="line-height:1.25;-inkscape-font-specification:'Courier New Bold'" x="51.645" y="286.975" transform="translate(0 -266.573)">
      <tspan x="51.645" y="286.975" style="-inkscape-font-specification:'Courier New Bold'">B1</tspan>
    </text>
    <text y="286.881" x="64.705" style="line-height:1.25;-inkscape-font-specification:'Courier New Bold'" transform="translate(0 -266.573)">
      <tspan style="-inkscape-font-specification:'Courier New Bold'" y="286.881" x="64.705">2B</tspan>
    </text>
    <text y="286.778" x="84.523" style="line-height:1.25;-inkscape-font-specification:'Courier New Bold'" transform="translate(0 -266.573)">
      <tspan style="-inkscape-font-specification:'Courier New Bold'" y="286.778" x="84.523">CE</tspan>
    </text>
    <text style="line-height:1.25;-inkscape-font-specification:'Courier New Bold'" x="77.995" y="286.741" transform="translate(0 -266.573)">
      <tspan x="77.995" y="286.741" style="-inkscape-font-specification:'Courier New Bold'">B2</tspan>
    </text>
    <text y="286.901" x="91.237" style="line-height:1.25;-inkscape-font-specification:'Courier New Bold'" transform="translate(0 -266.573)">
      <tspan style="-inkscape-font-specification:'Courier New Bold'" y="286.901" x="91.237">29</tspan>
    </text>
    <text y="286.854" x="111.076" style="line-height:1.25;-inkscape-font-specification:'Courier New Bold'" transform="translate(0 -266.573)">
      <tspan style="-inkscape-font-specification:'Courier New Bold'" y="286.854" x="111.076">C2</tspan>
    </text>
    <text style="line-height:1.25;-inkscape-font-specification:'Courier New Bold'" x="104.468" y="286.834" transform="translate(0 -266.573)">
      <tspan x="104.468" y="286.834" style="-inkscape-font-specification:'Courier New Bold'">B2</tspan>
    </text>
  </g>
</svg>
