<svg xmlns="http://www.w3.org/2000/svg" width="500" height="60" viewBox="0 0 132.292 15.875">
  <g transform="translate(0 -281.125)" fill="none" stroke="#000" stroke-linecap="round">
    <rect ry="0" y="289.063" x="10.583" height="6.615" width="13.229" stroke-width=".661"/>
    <rect ry="0" y="289.063" x="17.198" height="6.615" width="6.615" stroke-width=".265"/>
    <rect ry="0" y="289.063" x="10.583" height="6.615" width="6.615" stroke-width=".265"/>
  </g>
  <g transform="translate(0 -281.125)" stroke="#000" stroke-linecap="round">
    <rect width="6.615" height="6.615" x="10.583" y="282.448" ry="0" fill="#faa" stroke-width=".265"/>
    <rect width="13.229" height="6.615" x="10.583" y="282.448" ry="0" fill="none" stroke-width=".661"/>
    <rect width="6.615" height="6.615" x="17.198" y="282.448" ry="0" fill="none" stroke-width=".265"/>
  </g>
  <g transform="translate(0 -281.125)" stroke="#000" stroke-linecap="round">
    <rect width="6.615" height="6.615" x="23.813" y="289.063" ry="0" fill="#acf" stroke-width=".265"/>
    <rect width="13.229" height="6.615" x="23.813" y="289.063" ry="0" fill="none" stroke-width=".661"/>
    <rect width="6.615" height="6.615" x="30.427" y="289.063" ry="0" fill="none" stroke-width=".265"/>
  </g>
  <g transform="translate(26.458 -281.125)" fill="none" stroke="#000" stroke-linecap="round">
    <rect width="13.229" height="6.615" x="10.583" y="289.063" ry="0" stroke-width=".661"/>
    <rect width="6.615" height="6.615" x="17.198" y="289.063" ry="0" stroke-width=".265"/>
    <rect width="6.615" height="6.615" x="10.583" y="289.063" ry="0" stroke-width=".265"/>
  </g>
  <g transform="translate(0 -281.125)" stroke="#000" stroke-linecap="round">
    <rect ry="0" y="282.448" x="37.042" height="6.615" width="6.615" fill="#faa" stroke-width=".265"/>
    <rect ry="0" y="282.448" x="37.042" height="6.615" width="13.229" fill="none" stroke-width=".661"/>
    <rect ry="0" y="282.448" x="43.656" height="6.615" width="6.615" fill="none" stroke-width=".265"/>
  </g>
  <g transform="translate(39.688 -281.125)" fill="none" stroke="#000" stroke-linecap="round">
    <rect ry="0" y="289.063" x="10.583" height="6.615" width="13.229" stroke-width=".661"/>
    <rect ry="0" y="289.063" x="17.198" height="6.615" width="6.615" stroke-width=".265"/>
    <rect ry="0" y="289.063" x="10.583" height="6.615" width="6.615" stroke-width=".265"/>
  </g>
  <g transform="translate(0 -281.125)" stroke="#000" stroke-linecap="round">
    <rect width="6.615" height="6.615" x="30.427" y="282.448" ry="0" fill="#ececec" stroke-width=".265"/>
    <rect width="6.615" height="6.615" x="23.813" y="282.448" ry="0" fill="#ececec" stroke-width=".265"/>
    <rect width="13.229" height="6.615" x="23.813" y="282.448" ry="0" fill="none" stroke-width=".661"/>
    <rect width="6.615" height="6.615" x="50.271" y="282.448" ry="0" fill="#ececec" stroke-width=".265"/>
    <rect width="6.615" height="6.615" x="56.885" y="282.448" ry="0" fill="#e5ff80" stroke-width=".265"/>
    <rect width="13.229" height="6.615" x="50.271" y="282.448" ry="0" fill="none" stroke-width=".661"/>
  </g>
  <g transform="translate(52.917 -281.125)" fill="none" stroke="#000" stroke-linecap="round">
    <rect width="13.229" height="6.615" x="10.583" y="289.063" ry="0" stroke-width=".661"/>
    <rect width="6.615" height="6.615" x="17.198" y="289.063" ry="0" stroke-width=".265"/>
    <rect width="6.615" height="6.615" x="10.583" y="289.063" ry="0" stroke-width=".265"/>
  </g>
  <g transform="translate(0 -281.125)" stroke="#000" stroke-linecap="round">
    <rect ry="0" y="282.448" x="63.5" height="6.615" width="6.615" fill="#faa" stroke-width=".265"/>
    <rect ry="0" y="282.448" x="63.5" height="6.615" width="13.229" fill="none" stroke-width=".661"/>
    <rect ry="0" y="282.448" x="70.115" height="6.615" width="6.615" fill="none" stroke-width=".265"/>
  </g>
  <g transform="translate(66.146 -281.125)" fill="none" stroke="#000" stroke-linecap="round">
    <rect ry="0" y="289.063" x="10.583" height="6.615" width="13.229" stroke-width=".661"/>
    <rect ry="0" y="289.063" x="17.198" height="6.615" width="6.615" stroke-width=".265"/>
    <rect ry="0" y="289.063" x="10.583" height="6.615" width="6.615" stroke-width=".265"/>
  </g>
  <g transform="translate(0 -281.125)" stroke="#000" stroke-linecap="round">
    <rect width="6.615" height="6.615" x="76.729" y="282.448" ry="0" fill="#ececec" stroke-width=".265"/>
    <rect width="6.615" height="6.615" x="83.344" y="282.448" ry="0" fill="#e5ff80" stroke-width=".265"/>
    <rect width="13.229" height="6.615" x="76.729" y="282.448" ry="0" fill="none" stroke-width=".661"/>
  </g>
  <g transform="translate(79.375 -281.125)" fill="none" stroke="#000" stroke-linecap="round">
    <rect ry="0" y="289.063" x="10.583" height="6.615" width="13.229" stroke-width=".661"/>
    <rect ry="0" y="289.063" x="17.198" height="6.615" width="6.615" stroke-width=".265"/>
    <rect ry="0" y="289.063" x="10.583" height="6.615" width="6.615" stroke-width=".265"/>
  </g>
  <g transform="translate(0 -281.125)" stroke="#000" stroke-linecap="round">
    <rect width="6.615" height="6.615" x="89.958" y="282.448" ry="0" fill="#faa" stroke-width=".265"/>
    <rect width="13.229" height="6.615" x="89.958" y="282.448" ry="0" fill="none" stroke-width=".661"/>
    <rect width="6.615" height="6.615" x="96.573" y="282.448" ry="0" fill="none" stroke-width=".265"/>
  </g>
  <g transform="translate(92.604 -281.125)" fill="none" stroke="#000" stroke-linecap="round">
    <rect width="13.229" height="6.615" x="10.583" y="289.063" ry="0" stroke-width=".661"/>
    <rect width="6.615" height="6.615" x="17.198" y="289.063" ry="0" stroke-width=".265"/>
    <rect width="6.615" height="6.615" x="10.583" y="289.063" ry="0" stroke-width=".265"/>
  </g>
  <g transform="translate(0 -281.125)" stroke="#000" stroke-linecap="round">
    <rect ry="0" y="282.448" x="103.188" height="6.615" width="6.615" fill="#ececec" stroke-width=".265"/>
    <rect ry="0" y="282.448" x="109.802" height="6.615" width="6.615" fill="#e5ff80" stroke-width=".265"/>
    <rect ry="0" y="282.448" x="103.188" height="6.615" width="13.229" fill="none" stroke-width=".661"/>
  </g>
  <text style="line-height:1.25;-inkscape-font-specification:'Trebuchet MS'" x="119.005" y="286.936" font-weight="400" font-size="3.704" font-family="Trebuchet MS" letter-spacing="0" word-spacing="0" stroke-width=".265" transform="translate(0 -281.125)">
    <tspan x="119.005" y="286.936">shufAB</tspan>
  </text>
  <text style="line-height:1.25;-inkscape-font-specification:'Trebuchet MS'" x="119.06" y="293.551" font-weight="400" font-size="3.704" font-family="Trebuchet MS" letter-spacing="0" word-spacing="0" stroke-width=".265" transform="translate(0 -281.125)">
    <tspan x="119.06" y="293.551">shufC</tspan>
  </text>
  <g font-weight="400" letter-spacing="0" word-spacing="0" stroke-width=".265" font-size="4.233" font-family="Trebuchet MS">
    <text style="line-height:1.25;-inkscape-font-specification:'Trebuchet MS'" x="12.949" y="287.339" transform="translate(0 -281.125)">
      <tspan x="12.949" y="287.339">0</tspan>
    </text>
    <text style="line-height:1.25;-inkscape-font-specification:'Trebuchet MS'" x="18.721" y="287.245" transform="translate(0 -281.125)">
      <tspan x="18.721" y="287.245">-1</tspan>
    </text>
    <text style="line-height:1.25;-inkscape-font-specification:'Trebuchet MS'" x="25.991" y="287.152" transform="translate(0 -281.125)">
      <tspan x="25.991" y="287.152">3</tspan>
    </text>
    <text style="line-height:1.25;-inkscape-font-specification:'Trebuchet MS'" x="32.605" y="287.152" transform="translate(0 -281.125)">
      <tspan x="32.605" y="287.152">2</tspan>
    </text>
    <text style="line-height:1.25;-inkscape-font-specification:'Trebuchet MS'" x="39.368" y="287.153" transform="translate(0 -281.125)">
      <tspan x="39.368" y="287.153">4</tspan>
    </text>
    <text style="line-height:1.25;-inkscape-font-specification:'Trebuchet MS'" x="45.166" y="287.179" transform="translate(0 -281.125)">
      <tspan x="45.166" y="287.179">-1</tspan>
    </text>
    <text style="line-height:1.25;-inkscape-font-specification:'Trebuchet MS'" x="52.636" y="287.179" transform="translate(0 -281.125)">
      <tspan x="52.636" y="287.179">6</tspan>
    </text>
    <text style="line-height:1.25;-inkscape-font-specification:'Trebuchet MS'" x="58.957" y="287.272" transform="translate(0 -281.125)">
      <tspan x="58.957" y="287.272">5</tspan>
    </text>
    <text style="line-height:1.25;-inkscape-font-specification:'Trebuchet MS'" x="65.959" y="287.166" transform="translate(0 -281.125)">
      <tspan x="65.959" y="287.166">7</tspan>
    </text>
    <text style="line-height:1.25;-inkscape-font-specification:'Trebuchet MS'" x="71.357" y="287.272" transform="translate(0 -281.125)">
      <tspan x="71.357" y="287.272">-1</tspan>
    </text>
    <text style="line-height:1.25;-inkscape-font-specification:'Trebuchet MS'" x="79.094" y="287.459" transform="translate(0 -281.125)">
      <tspan x="79.094" y="287.459">9</tspan>
    </text>
    <text style="line-height:1.25;-inkscape-font-specification:'Trebuchet MS'" x="85.335" y="287.366" transform="translate(0 -281.125)">
      <tspan x="85.335" y="287.366">8</tspan>
    </text>
    <text style="line-height:1.25;-inkscape-font-specification:'Trebuchet MS'" x="90.827" y="287.259" transform="translate(0 -281.125)">
      <tspan x="90.827" y="287.259">10</tspan>
    </text>
    <text style="line-height:1.25;-inkscape-font-specification:'Trebuchet MS'" x="98.003" y="287.166" transform="translate(0 -281.125)">
      <tspan x="98.003" y="287.166">-1</tspan>
    </text>
    <text style="line-height:1.25;-inkscape-font-specification:'Trebuchet MS'" x="104.256" y="287.179" transform="translate(0 -281.125)">
      <tspan x="104.256" y="287.179">12</tspan>
    </text>
    <text style="line-height:1.25;-inkscape-font-specification:'Trebuchet MS'" x="110.817" y="287.353" transform="translate(0 -281.125)">
      <tspan x="110.817" y="287.353">11</tspan>
    </text>
    <text style="line-height:1.25;-inkscape-font-specification:'Trebuchet MS'" x="26.123" y="293.712" transform="translate(0 -281.125)">
      <tspan x="26.123" y="293.712">1</tspan>
    </text>
    <text y="293.728" x="18.721" style="line-height:1.25;-inkscape-font-specification:'Trebuchet MS'" transform="translate(0 -281.125)">
      <tspan y="293.728" x="18.721">-1</tspan>
    </text>
    <text style="line-height:1.25;-inkscape-font-specification:'Trebuchet MS'" x="12.173" y="293.728" transform="translate(0 -281.125)">
      <tspan x="12.173" y="293.728">-1</tspan>
    </text>
    <text y="293.728" x="31.752" style="line-height:1.25;-inkscape-font-specification:'Trebuchet MS'" transform="translate(0 -281.125)">
      <tspan y="293.728" x="31.752">-1</tspan>
    </text>
    <text style="line-height:1.25;-inkscape-font-specification:'Trebuchet MS'" x="45.18" y="293.728" transform="translate(0 -281.125)">
      <tspan x="45.18" y="293.728">-1</tspan>
    </text>
    <text y="293.728" x="38.631" style="line-height:1.25;-inkscape-font-specification:'Trebuchet MS'" transform="translate(0 -281.125)">
      <tspan y="293.728" x="38.631">-1</tspan>
    </text>
    <text y="293.728" x="58.409" style="line-height:1.25;-inkscape-font-specification:'Trebuchet MS'" transform="translate(0 -281.125)">
      <tspan y="293.728" x="58.409">-1</tspan>
    </text>
    <text style="line-height:1.25;-inkscape-font-specification:'Trebuchet MS'" x="51.86" y="293.728" transform="translate(0 -281.125)">
      <tspan x="51.86" y="293.728">-1</tspan>
    </text>
    <text style="line-height:1.25;-inkscape-font-specification:'Trebuchet MS'" x="71.638" y="293.728" transform="translate(0 -281.125)">
      <tspan x="71.638" y="293.728">-1</tspan>
    </text>
    <text y="293.728" x="65.089" style="line-height:1.25;-inkscape-font-specification:'Trebuchet MS'" transform="translate(0 -281.125)">
      <tspan y="293.728" x="65.089">-1</tspan>
    </text>
    <text y="293.728" x="84.669" style="line-height:1.25;-inkscape-font-specification:'Trebuchet MS'" transform="translate(0 -281.125)">
      <tspan y="293.728" x="84.669">-1</tspan>
    </text>
    <text style="line-height:1.25;-inkscape-font-specification:'Trebuchet MS'" x="78.12" y="293.728" transform="translate(0 -281.125)">
      <tspan x="78.12" y="293.728">-1</tspan>
    </text>
    <text style="line-height:1.25;-inkscape-font-specification:'Trebuchet MS'" x="97.964" y="293.728" transform="translate(0 -281.125)">
      <tspan x="97.964" y="293.728">-1</tspan>
    </text>
    <text y="293.728" x="91.415" style="line-height:1.25;-inkscape-font-specification:'Trebuchet MS'" transform="translate(0 -281.125)">
      <tspan y="293.728" x="91.415">-1</tspan>
    </text>
    <text y="293.728" x="110.929" style="line-height:1.25;-inkscape-font-specification:'Trebuchet MS'" transform="translate(0 -281.125)">
      <tspan y="293.728" x="110.929">-1</tspan>
    </text>
    <text style="line-height:1.25;-inkscape-font-specification:'Trebuchet MS'" x="104.38" y="293.728" transform="translate(0 -281.125)">
      <tspan x="104.38" y="293.728">-1</tspan>
    </text>
  </g>
</svg>
